HIERARCHY
ROOT Hips
{
	OFFSET 0.00000 0.00000 0.00000
	CHANNELS 6 Xposition Yposition Zposition Zrotation Yrotation Xrotation 
	JOINT LHipJoint
	{
		OFFSET 0 0 0
		CHANNELS 3 Zrotation Yrotation Xrotation
		JOINT LeftUpLeg
		{
			OFFSET 1.82298 -1.58346 0.87084
			CHANNELS 3 Zrotation Yrotation Xrotation
			JOINT LeftLeg
			{
				OFFSET 2.43790 -6.69809 0.00000
				CHANNELS 3 Zrotation Yrotation Xrotation
				JOINT LeftFoot
				{
					OFFSET 2.59288 -7.12389 0.00000
					CHANNELS 3 Zrotation Yrotation Xrotation
					JOINT LeftToeBase
					{
						OFFSET 0.14552 -0.39981 2.13160
						CHANNELS 3 Zrotation Yrotation Xrotation
						End Site
						{
							OFFSET 0.00000 -0.00000 1.09427
						}
					}
				}
			}
		}
	}
	JOINT RHipJoint
	{
		OFFSET 0 0 0
		CHANNELS 3 Zrotation Yrotation Xrotation
		JOINT RightUpLeg
		{
			OFFSET -1.77229 -1.58346 0.87084
			CHANNELS 3 Zrotation Yrotation Xrotation
			JOINT RightLeg
			{
				OFFSET -2.50703 -6.88801 0.00000
				CHANNELS 3 Zrotation Yrotation Xrotation
				JOINT RightFoot
				{
					OFFSET -2.61620 -7.18796 0.00000
					CHANNELS 3 Zrotation Yrotation Xrotation
					JOINT RightToeBase
					{
						OFFSET -0.15190 -0.41735 2.15974
						CHANNELS 3 Zrotation Yrotation Xrotation
						End Site
						{
							OFFSET -0.00000 -0.00000 1.10919
						}
					}
				}
			}
		}
	}
	JOINT LowerBack
	{
		OFFSET 0 0 0
		CHANNELS 3 Zrotation Yrotation Xrotation
		JOINT Spine
		{
			OFFSET -0.03602 2.12423 -0.30249
			CHANNELS 3 Zrotation Yrotation Xrotation
			JOINT Spine1
			{
				OFFSET 0.02717 2.10043 0.12912
				CHANNELS 3 Zrotation Yrotation Xrotation
				JOINT Neck
				{
					OFFSET 0 0 0
					CHANNELS 3 Zrotation Yrotation Xrotation
					JOINT Neck1
					{
						OFFSET -0.06371 1.88656 0.11602
						CHANNELS 3 Zrotation Yrotation Xrotation
						JOINT Head
						{
							OFFSET 0.08208 1.87759 -0.11505
							CHANNELS 3 Zrotation Yrotation Xrotation
							End Site
							{
								OFFSET 0.03382 1.93090 -0.05483
							}
						}
					}
				}
				JOINT LeftShoulder
				{
					OFFSET 0 0 0
					CHANNELS 3 Zrotation Yrotation Xrotation
					JOINT LeftArm
					{
						OFFSET 3.30903 1.40357 0.20156
						CHANNELS 3 Zrotation Yrotation Xrotation
						JOINT LeftForeArm
						{
							OFFSET 5.43301 -0.00000 0.00000
							CHANNELS 3 Zrotation Yrotation Xrotation
							JOINT LeftHand
							{
								OFFSET 3.15936 -0.00000 0.00000
								CHANNELS 3 Zrotation Yrotation Xrotation
								JOINT LeftFingerBase
								{
									OFFSET 0 0 0
									CHANNELS 3 Zrotation Yrotation Xrotation
									JOINT LeftHandIndex1
									{
										OFFSET 0.71283 -0.00000 0.00000
										CHANNELS 3 Zrotation Yrotation Xrotation
										End Site
										{
											OFFSET 0.57470 -0.00000 0.00000
										}
									}
								}
								JOINT LThumb
								{
									OFFSET 0 0 0
									CHANNELS 3 Zrotation Yrotation Xrotation
									End Site
									{
										OFFSET 0.58347 -0.00000 0.58347
									}
								}
							}
						}
					}
				}
				JOINT RightShoulder
				{
					OFFSET 0 0 0
					CHANNELS 3 Zrotation Yrotation Xrotation
					JOINT RightArm
					{
						OFFSET -3.12947 1.60037 -0.00464
						CHANNELS 3 Zrotation Yrotation Xrotation
						JOINT RightForeArm
						{
							OFFSET -5.34194 -0.00000 0.00000
							CHANNELS 3 Zrotation Yrotation Xrotation
							JOINT RightHand
							{
								OFFSET -3.19351 -0.00000 0.00000
								CHANNELS 3 Zrotation Yrotation Xrotation
								JOINT RightFingerBase
								{
									OFFSET 0 0 0
									CHANNELS 3 Zrotation Yrotation Xrotation
									JOINT RightHandIndex1
									{
										OFFSET -0.74386 -0.00000 0.00000
										CHANNELS 3 Zrotation Yrotation Xrotation
										End Site
										{
											OFFSET -0.59972 -0.00000 0.00000
										}
									}
								}
								JOINT RThumb
								{
									OFFSET 0 0 0
									CHANNELS 3 Zrotation Yrotation Xrotation
									End Site
									{
										OFFSET -0.60888 -0.00000 0.60888
									}
								}
							}
						}
					}
				}
			}
		}
	}
}
MOTION
Frames: 8
Frame Time: 0.00407332
0.00 0.00 0.00 0 0 0 0 0 0 -21 0 0 0 0 0 0 0 0 0 0 0 0 0 0 21 0 0 0 0 0 0 0 0 0 0 0 0 0 0 0 0 0 0 0 0 0 0 -16 0 0 21 0 0 11 0 0 0 -8 0 0 0 0 0 0 0 0 0 0 0 0 0 0 0 0 0 0 0 0 8 0 0 0 0 0 0 0 0 0 0 0 0 0 0 0 0 0
0.00 0.00 0.00 -2.8511 3.2985 4.8585 0.0000 0.0000 0.0000 -15.6594 -14.3684 -28.7056 7.9346 16.0710 52.3269 1.8415 -0.3368 -25.5858 0.0082 0.5862 1.6110 0.0000 0.0000 0.0000 23.4683 12.1420 -25.9132 -7.5500 -15.7781 50.9250 -1.4812 -1.8137 -23.7129 -0.0470 1.3997 -3.8494 -0.2330 0.6717 10.2791 2.5595 1.0496 -1.3164 2.6617 0.5801 -7.2236 -5.8026 -3.9901 -7.9630 4.2258 -5.2340 13.6948 1.8900 -2.5501 5.7083 -0.0000 -0.0000 0.0000 -87.6492 -21.0800 24.3157 16.3627 -26.0100 -3.8036 -0.0000 0.0000 -6.1700 30.7174 24.0762 13.6252 -7.1250 0.0000 -0.0000 1.5654 57.4358 0.4768 -0.0000 -0.0000 0.0000 68.7268 7.8878 3.5242 -16.0721 25.6183 -3.6771 0.0000 -0.0000 -5.5300 -22.3952 -38.7319 14.4574 7.1250 -0.0000 -0.0000 18.8601 -70.0917 -11.4478
0.00 0.00 0.00 -2.0562 1.9005 4.4245 0.0000 0.0000 0.0000 -22.2710 -12.6312 -27.0911 7.6053 15.8212 51.1283 1.6784 -1.0161 -24.2094 0.3492 3.7969 10.5060 0.0000 0.0000 0.0000 22.7127 9.9944 -30.1594 -8.8336 -16.6994 55.5129 -1.4125 12.1363 -21.6577 -0.4295 -4.2058 11.6563 -2.8869 1.9474 9.1333 1.2567 2.3506 -1.0802 2.5993 1.2818 -6.4367 -6.5898 -4.2032 -4.9820 5.3199 -5.6417 10.5951 2.4005 -2.7631 4.3211 0.0000 0.0000 0.0000 -108.4206 -36.5352 64.3144 21.4272 -32.3236 -6.2768 -0.0000 0.0000 -23.3542 33.5250 26.7816 16.6215 -7.1250 0.0000 -0.0000 4.2114 61.1239 1.6557 0.0000 0.0000 0.0000 85.0875 36.9584 49.5205 -28.0570 39.1687 -10.1597 0.0000 -0.0000 -18.2725 -26.7700 -38.9720 17.6036 7.1250 -0.0000 -0.0000 13.3393 -71.7679 -8.5416
0.00 0.00 0.00 -2.7655 3.2011 2.7907 0.0000 0.0000 0.0000 -21.0814 -11.9125 -28.2206 11.9580 18.3728 65.8555 3.5732 1.1133 -36.2463 0.0377 1.2541 3.4481 0.0000 0.0000 0.0000 25.1906 6.8776 -29.8199 -12.2507 -18.4946 66.7811 -3.6959 4.3375 -35.4940 -0.1018 2.0579 -5.6656 -2.2970 1.6279 8.0567 1.3681 2.0222 -2.2574 2.4447 1.1239 -7.0298 -6.5979 -4.4995 -6.5695 4.6837 -6.0092 14.7683 2.1256 -2.9572 5.8850 0.0000 -0.0000 0.0000 -107.3242 -29.2061 67.4259 21.5865 -32.5066 -6.3622 -0.0000 0.0000 -28.2055 36.1516 27.6952 18.7552 -7.1250 0.0000 -0.0000 7.3832 62.8589 3.2113 0.0000 -0.0000 0.0000 89.4702 30.6678 58.6752 -25.4948 36.7055 -8.5839 0.0000 -0.0000 -23.2896 -24.2418 -39.9712 16.1336 7.1250 -0.0000 -0.0000 18.2684 -71.8401 -11.7811
0.00 0.00 0.00 1.8863 14.0365 9.1266 0.0000 0.0000 0.0000 -23.6987 -22.2332 -26.9533 11.0919 17.9798 63.0796 3.9495 -0.5612 -37.6148 0.0078 -0.5718 -1.5713 0.0000 0.0000 0.0000 21.6343 5.8477 -41.9501 -17.2584 -19.8188 81.9609 -1.6597 -10.3577 -29.9852 -0.0707 1.7158 -4.7209 -6.4638 2.6435 10.3350 -0.0215 2.6452 -2.9015 3.1291 1.6424 -9.2404 -10.1851 -9.0593 -2.5026 8.4709 -12.3162 7.9110 3.5877 -6.0866 3.9248 -0.0000 0.0000 0.0000 -100.9300 -25.9890 61.7059 31.9999 -42.5471 -12.7407 -0.0000 0.0000 -28.6318 43.2531 34.3363 27.9532 -7.1250 0.0000 -0.0000 18.1129 72.4402 11.9145 -0.0000 0.0000 0.0000 86.8927 35.2901 69.0843 -27.7784 38.9114 -9.9842 0.0000 -0.0000 -23.6528 -5.8746 -38.2813 3.6473 7.1250 -0.0000 -0.0000 36.7572 -64.7406 -18.7251
0.00 0.00 0.00 3.4491 19.4736 8.0846 0.0000 0.0000 0.0000 -24.1995 -20.4328 -20.1795 9.4681 17.0997 57.6952 4.1336 -3.6868 -37.7699 0.1161 -2.1970 -6.0504 0.0000 0.0000 0.0000 14.5920 9.6889 -57.0335 -23.1920 -19.7539 99.3697 -1.0567 -13.9527 -28.9408 -0.0428 1.3345 -3.6696 -9.6198 3.8492 12.8147 0.0067 3.6106 -1.3548 4.6674 2.2269 -9.3183 -11.2037 -10.9069 0.3937 10.7687 -15.0631 5.4515 4.4221 -7.4943 3.2248 -0.0000 0.0000 0.0000 -97.4404 -25.7404 59.6756 37.2639 -46.3627 -16.4308 -0.0000 0.0000 -26.3509 47.3771 33.8738 31.2009 -7.1250 0.0000 -0.0000 27.0579 73.2117 18.4437 -0.0000 0.0000 0.0000 87.1906 38.4070 74.3610 -29.7707 40.6961 -11.2598 0.0000 -0.0000 -22.1929 -3.6917 -37.1721 2.2325 7.1250 -0.0000 -0.0000 37.4929 -63.2792 -17.8876
0.00 0.00 0.00 0.4104 24.1718 -11.4237 0.0000 0.0000 0.0000 -19.3154 -1.2590 0.9291 9.9478 17.3804 59.3137 2.6276 -1.7831 -30.2267 2.1097 -9.0909 -26.0801 0.0000 0.0000 0.0000 -7.7368 4.5320 -96.5143 -23.0859 -19.7701 99.0559 -0.6228 -9.1079 -20.8885 -0.7965 5.6964 -15.9062 -8.4412 5.1987 32.8427 2.5931 4.2121 5.6339 5.6181 2.2837 -11.2940 -12.0679 -11.7389 0.3898 13.7641 -15.9843 0.7213 5.4823 -7.9724 2.2480 0.0000 0.0000 0.0000 -79.5194 -25.1966 45.9184 71.8789 -58.7221 -44.3740 -0.0000 0.0000 -24.4848 57.2557 36.0816 42.4836 -7.1250 0.0000 -0.0000 61.3368 77.4130 49.5126 0.0000 0.0000 0.0000 89.8763 54.4105 94.9480 -49.7487 52.8936 -25.9736 0.0000 -0.0000 -4.6891 -0.4660 -32.6010 0.2511 7.1250 -0.0000 -0.0000 35.6035 -58.8402 -13.0812
0.00 0.00 0.00 1.3229 26.8469 -14.9078 0.0000 0.0000 0.0000 -20.0187 -2.7092 6.8721 11.2410 18.0510 63.5617 2.3945 -0.4217 -29.1959 2.8858 -10.5078 -30.6372 0.0000 0.0000 0.0000 -6.0811 -1.4775 -116.1419 -28.4219 -18.2066 115.3548 -0.9176 -3.2073 -19.5246 -1.0215 6.4298 -18.0367 -7.8532 5.2651 35.3859 2.1648 4.2673 6.1229 4.7042 2.2795 -11.5233 -12.2982 -12.3487 0.4685 14.0246 -16.8968 1.4894 5.4932 -8.4157 2.6219 -0.0000 0.0000 0.0000 -72.9670 -25.5766 42.8270 82.1719 -59.7672 -53.2260 -0.0000 0.0000 -21.6803 56.6347 35.3545 41.3058 -7.1250 0.0000 -0.0000 57.0481 76.7396 45.0259 -0.0000 0.0000 0.0000 90.5681 58.9554 98.1543 -56.0398 55.1588 -31.0677 0.0000 -0.0000 -0.3860 -0.8309 -30.5572 0.4224 7.1250 -0.0000 -0.0000 33.3844 -57.2377 -10.8183
